<?xml version="1.0" encoding="utf-8"?>
<!-- Generator: Adobe Illustrator 15.0.2, SVG Export Plug-In . SVG Version: 6.00 Build 0)  -->
<!DOCTYPE svg PUBLIC "-//W3C//DTD SVG 1.1//EN" "http://www.w3.org/Graphics/SVG/1.1/DTD/svg11.dtd">
<svg version="1.1" id="Layer_1" xmlns="http://www.w3.org/2000/svg" xmlns:xlink="http://www.w3.org/1999/xlink" x="0px" y="0px"
	 width="55px" height="55px" viewBox="0 0 55 55" enable-background="new 0 0 55 55" xml:space="preserve">
<rect x="8.115" y="1.814" fill="#939598" width="38.916" height="50.738"/>
<g>
	<path fill="#FFFFFF" d="M16.465,5.066c0.029,0.127,0.043,0.249,0.043,0.365c0,0.509-0.2,0.969-0.599,1.38
		c-0.069,0.075-0.104,0.162-0.104,0.261c0,0.121,0.046,0.22,0.139,0.295c0.521,0.44,0.781,1.016,0.781,1.728
		c0,0.775-0.355,1.4-1.067,1.875c-0.567,0.382-1.34,0.573-2.318,0.573c-1.03,0-1.745-0.205-2.144-0.616
		c-0.243-0.243-0.441-0.706-0.595-1.389c-0.153-0.683-0.23-1.421-0.23-2.214c0-0.908,0.104-1.693,0.312-2.353
		c0.243-0.747,0.596-1.229,1.059-1.45c0.55-0.26,1.125-0.391,1.728-0.391c0.747,0,1.408,0.187,1.983,0.56
		C16.03,4.063,16.367,4.522,16.465,5.066z M14.239,9.701c0.298-0.145,0.447-0.347,0.447-0.607c0-0.214-0.096-0.405-0.287-0.573
		c-0.208-0.18-0.475-0.281-0.799-0.304c-0.434-0.035-0.806,0.036-1.115,0.213s-0.464,0.398-0.464,0.664
		c0,0.099,0.026,0.197,0.078,0.295c0.075,0.162,0.223,0.291,0.442,0.386c0.22,0.096,0.466,0.144,0.738,0.144
		C13.621,9.918,13.941,9.846,14.239,9.701z M14.259,6.333c0.308-0.145,0.462-0.35,0.462-0.616c0-0.214-0.103-0.409-0.31-0.586
		c-0.206-0.176-0.472-0.276-0.797-0.299c-0.453-0.035-0.814,0.03-1.084,0.195c-0.27,0.165-0.405,0.389-0.405,0.673
		c0,0.098,0.018,0.197,0.052,0.295c0.052,0.156,0.19,0.285,0.414,0.386c0.224,0.102,0.48,0.152,0.771,0.152
		C13.687,6.533,13.986,6.466,14.259,6.333z"/>
	<path fill="#FFFFFF" d="M19.781,7.548c0.023,1.013-0.041,1.873-0.191,2.578c-0.197,0.897-0.512,1.349-0.946,1.354
		c-0.382,0.011-0.668-0.223-0.859-0.703s-0.284-1.209-0.278-2.188c0.006-1.765,0.055-2.963,0.147-3.594
		c0.15-1.024,0.463-1.54,0.938-1.545c0.469-0.011,0.796,0.469,0.981,1.441C19.677,5.442,19.747,6.328,19.781,7.548z"/>
	<path fill="#FFFFFF" d="M28.811,6.601c0.045,0.626,0.068,1.168,0.068,1.626c0,2.175-0.504,3.254-1.51,3.236
		c-0.689-0.011-1.441-0.556-2.257-1.632c-0.324-0.422-0.784-1.157-1.38-2.205c-0.26-0.457-0.446-0.686-0.556-0.686
		c-0.168,0-0.24,0.522-0.217,1.565c0.023,0.911-0.043,1.6-0.2,2.066c-0.197,0.594-0.547,0.891-1.05,0.891
		c-0.371,0-0.663-0.329-0.877-0.987c-0.191-0.601-0.287-1.357-0.287-2.27c0-1.241,0.162-2.318,0.486-3.231
		c0.376-1.028,0.874-1.53,1.493-1.507c0.457,0.017,0.903,0.24,1.337,0.668c0.33,0.324,0.668,0.79,1.016,1.397
		c0.243,0.475,0.489,0.946,0.738,1.415c0.405,0.77,0.666,1.154,0.781,1.154c0.069,0,0.104-0.125,0.104-0.375
		c0.006-0.558,0.012-1.112,0.018-1.664c0.029-0.744,0.102-1.316,0.217-1.717c0.15-0.534,0.391-0.825,0.721-0.871
		c0.053-0.006,0.102-0.009,0.148-0.009c0.428,0,0.733,0.302,0.911,0.905C28.631,4.762,28.729,5.504,28.811,6.601z"/>
	<path fill="#FFFFFF" d="M36.465,9.806c-0.109,0.422-0.326,0.77-0.646,1.042s-0.713,0.447-1.176,0.525s-0.898,0.117-1.303,0.117
		c-1.256,0-2.201-0.368-2.838-1.103c-0.596-0.683-0.883-1.635-0.859-2.856c0.023-1.128,0.326-2.066,0.91-2.812
		c0.486-0.613,1.066-1.001,1.736-1.163c0.406-0.099,0.803-0.148,1.189-0.148c0.887,0,1.682,0.243,2.387,0.729
		c0.498,0.341,0.748,0.738,0.748,1.189c0,0.388-0.16,0.646-0.479,0.772c-0.145,0.052-0.277,0.078-0.398,0.078
		c-0.18,0-0.373-0.069-0.582-0.208c-0.389-0.255-0.584-0.382-0.59-0.382c-0.268-0.139-0.557-0.208-0.869-0.208
		c-0.23,0-0.486,0.038-0.764,0.112c-0.398,0.099-0.717,0.361-0.955,0.789c-0.213,0.393-0.32,0.84-0.32,1.343
		c0,0.468,0.098,0.878,0.295,1.23c0.209,0.375,0.5,0.609,0.877,0.702c0.225,0.052,0.434,0.078,0.625,0.078
		c0.469,0,0.836-0.141,1.102-0.422c0.209-0.219,0.312-0.449,0.312-0.69c0-0.058-0.012-0.108-0.033-0.151
		c-0.023-0.043-0.152-0.065-0.383-0.065c-0.029,0-0.072,0-0.131,0c-0.057,0-0.102,0-0.129,0c-0.354,0-0.613-0.041-0.781-0.122
		c-0.256-0.116-0.379-0.335-0.373-0.66c0.004-0.532,0.506-0.799,1.5-0.799c0.141,0,0.318,0.003,0.539,0.009
		c0.271,0.012,0.439,0.021,0.504,0.026c0.74,0.017,1.111,0.529,1.111,1.536C36.691,8.735,36.615,9.238,36.465,9.806z"/>
	<path fill="#FFFFFF" d="M45.068,6.681c0.012,0.185,0.018,0.376,0.018,0.573c0,1.094-0.234,2.002-0.703,2.726
		c-0.625,0.967-1.619,1.47-2.979,1.511c-1.475,0.04-2.559-0.48-3.246-1.562c-0.469-0.741-0.697-1.574-0.686-2.5
		c0.012-0.966,0.32-1.84,0.928-2.621c0.719-0.926,1.668-1.406,2.848-1.441c1.186-0.035,2.141,0.359,2.865,1.181
		C44.68,5.182,44.998,5.894,45.068,6.681z M43.105,6.637c-0.109-0.359-0.342-0.647-0.699-0.864
		c-0.355-0.217-0.744-0.326-1.166-0.326c-0.377,0-0.713,0.093-1.008,0.278c-0.318,0.203-0.543,0.498-0.678,0.885
		c-0.092,0.272-0.139,0.559-0.139,0.859c0,0.521,0.131,0.964,0.391,1.328c0.301,0.423,0.736,0.677,1.303,0.764
		c0.098,0.012,0.193,0.017,0.287,0.017c0.549,0,0.998-0.223,1.346-0.668c0.322-0.422,0.484-0.923,0.484-1.502
		C43.227,7.138,43.188,6.88,43.105,6.637z"/>
</g>
<line fill="none" stroke="#FFFFFF" stroke-width="2" stroke-miterlimit="10" x1="20.845" y1="13.634" x2="20.845" y2="53.256"/>
<line fill="none" stroke="#FFFFFF" stroke-width="2" stroke-miterlimit="10" x1="33.761" y1="13.634" x2="33.679" y2="53.427"/>
<line fill="none" stroke="#FFFFFF" stroke-width="2" stroke-miterlimit="10" x1="46.97" y1="26.468" x2="7.345" y2="26.551"/>
<line fill="none" stroke="#FFFFFF" stroke-width="2" stroke-miterlimit="10" x1="46.97" y1="39.468" x2="7.345" y2="39.468"/>
<g>
	<g>
		<rect x="21.865" y="27.521" fill="#00AEEF" width="10.96" height="10.949"/>
	</g>
</g>
<line fill="none" stroke="#FFFFFF" stroke-width="2" stroke-miterlimit="10" x1="47.156" y1="13.729" x2="7.615" y2="13.812"/>
</svg>
