<?xml version="1.0" encoding="utf-8"?>
<!-- Generator: Adobe Illustrator 15.0.2, SVG Export Plug-In . SVG Version: 6.00 Build 0)  -->
<!DOCTYPE svg PUBLIC "-//W3C//DTD SVG 1.1//EN" "http://www.w3.org/Graphics/SVG/1.1/DTD/svg11.dtd">
<svg version="1.1" id="Layer_1" xmlns="http://www.w3.org/2000/svg" xmlns:xlink="http://www.w3.org/1999/xlink" x="0px" y="0px"
	 width="55px" height="55px" viewBox="0 0 55 55" enable-background="new 0 0 55 55" xml:space="preserve">
<g>
	<path fill="none" stroke="#000000" stroke-width="3" stroke-miterlimit="10" d="M46.11,7c0-2.75-2.25-5-5-5H14.026
		c-2.75,0-5,2.25-5,5v40.487c0,2.75,2.25,5,5,5H41.11c2.75,0,5-2.25,5-5V7z"/>
</g>
<g>
	<path d="M17.534,6.773c0.026,0.121,0.04,0.237,0.04,0.347c0,0.485-0.182,0.923-0.547,1.314c-0.063,0.072-0.095,0.154-0.095,0.248
		c0,0.116,0.042,0.209,0.127,0.281c0.476,0.419,0.714,0.967,0.714,1.646c0,0.739-0.325,1.334-0.976,1.786
		c-0.518,0.364-1.224,0.545-2.118,0.545c-0.941,0-1.594-0.195-1.959-0.587c-0.222-0.231-0.403-0.672-0.543-1.323
		c-0.141-0.65-0.21-1.353-0.21-2.108c0-0.865,0.095-1.612,0.286-2.241c0.222-0.711,0.544-1.171,0.968-1.38
		c0.502-0.248,1.028-0.372,1.579-0.372c0.682,0,1.286,0.178,1.812,0.533C17.136,5.818,17.444,6.255,17.534,6.773z M15.5,11.188
		c0.272-0.138,0.409-0.331,0.409-0.579c0-0.204-0.087-0.386-0.262-0.546c-0.19-0.17-0.434-0.267-0.73-0.289
		c-0.396-0.033-0.736,0.034-1.019,0.203c-0.283,0.168-0.424,0.379-0.424,0.632c0,0.094,0.023,0.188,0.071,0.281
		c0.068,0.155,0.204,0.277,0.404,0.368c0.201,0.091,0.426,0.136,0.674,0.136C14.935,11.394,15.227,11.325,15.5,11.188z M15.518,7.98
		c0.281-0.138,0.422-0.333,0.422-0.587c0-0.204-0.094-0.39-0.283-0.558c-0.188-0.168-0.431-0.263-0.728-0.286
		c-0.414-0.033-0.744,0.029-0.991,0.186c-0.247,0.157-0.37,0.371-0.37,0.641c0,0.094,0.016,0.187,0.047,0.281
		c0.048,0.149,0.174,0.271,0.378,0.368c0.205,0.096,0.439,0.145,0.705,0.145C14.996,8.17,15.269,8.106,15.518,7.98z"/>
	<path d="M20.564,9.137c0.021,0.964-0.037,1.783-0.174,2.456c-0.18,0.854-0.468,1.284-0.865,1.29
		c-0.349,0.011-0.611-0.212-0.785-0.67c-0.175-0.457-0.259-1.152-0.254-2.083c0.005-1.681,0.05-2.822,0.135-3.423
		c0.138-0.976,0.423-1.466,0.857-1.472c0.428-0.011,0.727,0.447,0.896,1.373C20.469,7.131,20.532,7.974,20.564,9.137z"/>
	<path d="M28.813,8.234c0.042,0.596,0.063,1.113,0.063,1.549c0,2.071-0.46,3.099-1.38,3.082c-0.629-0.011-1.317-0.529-2.062-1.554
		c-0.296-0.402-0.716-1.102-1.261-2.1c-0.238-0.435-0.407-0.653-0.507-0.653c-0.153,0-0.22,0.497-0.198,1.491
		c0.021,0.867-0.04,1.523-0.183,1.968c-0.18,0.565-0.5,0.848-0.96,0.848c-0.338,0-0.605-0.313-0.801-0.94
		c-0.175-0.572-0.262-1.292-0.262-2.161c0-1.183,0.148-2.208,0.444-3.077c0.344-0.979,0.798-1.458,1.364-1.436
		c0.418,0.017,0.825,0.229,1.222,0.637c0.301,0.309,0.611,0.752,0.928,1.331c0.222,0.452,0.447,0.901,0.674,1.348
		c0.37,0.733,0.608,1.1,0.714,1.1c0.063,0,0.095-0.119,0.095-0.357c0.005-0.531,0.01-1.06,0.016-1.585
		c0.026-0.708,0.092-1.253,0.198-1.635c0.138-0.509,0.357-0.786,0.659-0.83c0.047-0.005,0.092-0.008,0.135-0.008
		c0.391,0,0.669,0.288,0.832,0.862C28.649,6.483,28.739,7.19,28.813,8.234z"/>
	<path d="M35.81,11.287c-0.101,0.402-0.298,0.733-0.591,0.992c-0.294,0.259-0.652,0.426-1.075,0.5
		c-0.423,0.075-0.819,0.112-1.189,0.112c-1.147,0-2.013-0.35-2.594-1.05c-0.545-0.65-0.807-1.557-0.785-2.72
		c0.021-1.075,0.298-1.968,0.832-2.679c0.444-0.584,0.974-0.953,1.587-1.107c0.37-0.094,0.732-0.141,1.087-0.141
		c0.809,0,1.536,0.231,2.181,0.694c0.455,0.325,0.683,0.703,0.683,1.133c0,0.369-0.146,0.614-0.437,0.735
		c-0.132,0.05-0.254,0.075-0.364,0.075c-0.164,0-0.342-0.066-0.532-0.199c-0.354-0.242-0.534-0.364-0.539-0.364
		c-0.243-0.132-0.508-0.198-0.793-0.198c-0.212,0-0.444,0.036-0.698,0.107c-0.365,0.093-0.656,0.344-0.873,0.75
		c-0.195,0.374-0.293,0.8-0.293,1.279c0,0.446,0.09,0.836,0.27,1.172c0.19,0.357,0.457,0.58,0.801,0.668
		c0.207,0.05,0.397,0.075,0.571,0.075c0.429,0,0.765-0.134,1.008-0.403c0.19-0.208,0.285-0.427,0.285-0.657
		c0-0.055-0.011-0.103-0.031-0.144c-0.021-0.041-0.138-0.062-0.35-0.062c-0.026,0-0.065,0-0.118,0c-0.054,0-0.093,0-0.119,0
		c-0.323,0-0.561-0.039-0.714-0.116c-0.233-0.11-0.347-0.32-0.342-0.628c0.006-0.507,0.463-0.761,1.373-0.761
		c0.127,0,0.29,0.003,0.491,0.008c0.249,0.011,0.402,0.02,0.46,0.025c0.677,0.017,1.016,0.504,1.016,1.463
		C36.016,10.267,35.947,10.747,35.81,11.287z"/>
	<path d="M43.67,8.311c0.011,0.176,0.016,0.358,0.016,0.545c0,1.042-0.214,1.907-0.643,2.596c-0.571,0.92-1.479,1.4-2.721,1.438
		c-1.349,0.039-2.337-0.458-2.967-1.488c-0.428-0.706-0.637-1.499-0.626-2.381c0.01-0.92,0.293-1.753,0.849-2.497
		c0.655-0.882,1.522-1.339,2.602-1.373c1.084-0.033,1.956,0.342,2.617,1.125C43.315,6.883,43.606,7.561,43.67,8.311z M41.877,8.269
		c-0.101-0.342-0.313-0.616-0.639-0.822c-0.325-0.207-0.681-0.31-1.066-0.31c-0.344,0-0.65,0.088-0.921,0.264
		c-0.29,0.193-0.497,0.474-0.618,0.843c-0.085,0.259-0.127,0.532-0.127,0.819c0,0.496,0.119,0.917,0.356,1.265
		c0.275,0.402,0.672,0.645,1.19,0.728c0.09,0.011,0.177,0.017,0.262,0.017c0.502,0,0.912-0.212,1.229-0.637
		c0.296-0.402,0.444-0.879,0.444-1.43C41.988,8.746,41.951,8.5,41.877,8.269z"/>
</g>
<line fill="none" stroke="#000000" stroke-width="2" stroke-miterlimit="10" x1="21.415" y1="15.401" x2="21.415" y2="52.328"/>
<line fill="none" stroke="#000000" stroke-width="2" stroke-miterlimit="10" x1="33.722" y1="15.401" x2="33.644" y2="52.487"/>
<line fill="none" stroke="#000000" stroke-width="2" stroke-miterlimit="10" x1="46.11" y1="27.631" x2="9.423" y2="27.71"/>
<line fill="none" stroke="#000000" stroke-width="2" stroke-miterlimit="10" x1="46.11" y1="40.019" x2="9.423" y2="40.019"/>
<line fill="none" stroke="#000000" stroke-width="2" stroke-miterlimit="10" x1="33.683" y1="27.71" x2="21.415" y2="40.019"/>
<line fill="none" stroke="#000000" stroke-width="2" stroke-miterlimit="10" x1="33.722" y1="33.395" x2="27.037" y2="40.019"/>
<line fill="none" stroke="#000000" stroke-width="2" stroke-miterlimit="10" x1="28.481" y1="27.71" x2="21.415" y2="34.72"/>
<line fill="none" stroke="#000000" stroke-width="3" stroke-miterlimit="10" x1="46.11" y1="16.019" x2="9.423" y2="16.019"/>
</svg>
