<?xml version="1.0" encoding="utf-8"?>
<!-- Generator: Adobe Illustrator 15.0.2, SVG Export Plug-In . SVG Version: 6.00 Build 0)  -->
<!DOCTYPE svg PUBLIC "-//W3C//DTD SVG 1.1//EN" "http://www.w3.org/Graphics/SVG/1.1/DTD/svg11.dtd">
<svg version="1.1" id="Layer_1" xmlns="http://www.w3.org/2000/svg" xmlns:xlink="http://www.w3.org/1999/xlink" x="0px" y="0px"
	 width="55px" height="55px" viewBox="0 0 55 55" enable-background="new 0 0 55 55" xml:space="preserve">
<circle fill="#FFF200" stroke="#000000" stroke-width="3" stroke-miterlimit="10" cx="27.5" cy="27.499" r="25.348"/>
<ellipse transform="matrix(0.9869 -0.1615 0.1615 0.9869 -2.8528 3.8588)" cx="22.305" cy="19.474" rx="2.158" ry="4.313"/>
<path stroke="#000000" stroke-miterlimit="10" d="M43.592,31.111c-2.996,5.571-9.15,11.514-16.254,11.514
	c-7.103,0-13.257-5.942-16.254-11.514c4.547,3.542,10.166,7.638,16.254,7.638C33.427,38.749,39.045,34.653,43.592,31.111z"/>
<ellipse transform="matrix(-0.9869 -0.1615 0.1615 -0.9869 61.2878 43.9301)" cx="32.43" cy="19.474" rx="2.158" ry="4.313"/>
<ellipse transform="matrix(0.7116 -0.7026 0.7026 0.7116 -8.4201 39.9189)" cx="44.41" cy="30.215" rx="1.04" ry="2.925"/>
<ellipse transform="matrix(-0.7116 -0.7026 0.7026 -0.7116 -3.5143 58.987)" cx="10.351" cy="30.215" rx="1.04" ry="2.925"/>
</svg>
